<svg width="76" height="61" viewBox="0 0 76 61" fill="none" xmlns="http://www.w3.org/2000/svg">
<path d="M1.25 52.6548H64.7542V57.5411" stroke="black" stroke-width="2.5" stroke-miterlimit="2.6131" stroke-linecap="round" stroke-linejoin="round"/>
<path d="M64.7536 57.541C64.7536 58.6975 63.8087 59.6395 62.6582 59.6395" stroke="black" stroke-width="2.5" stroke-miterlimit="2.6131" stroke-linecap="round" stroke-linejoin="round"/>
<path d="M62.6596 59.6396H2.92773" stroke="black" stroke-width="2.5" stroke-miterlimit="2.6131" stroke-linecap="round" stroke-linejoin="round"/>
<path d="M2.92689 59.6394C2.00466 59.6394 1.25 58.8832 1.25 57.9609" stroke="black" stroke-width="2.5" stroke-miterlimit="2.6131" stroke-linecap="round" stroke-linejoin="round"/>
<path d="M1.25 57.9611V52.6548" stroke="black" stroke-width="2.5" stroke-miterlimit="2.6131" stroke-linecap="round" stroke-linejoin="round"/>
<path d="M20.9799 19.376H6.86719" stroke="black" stroke-width="2.5" stroke-miterlimit="2.6131" stroke-linecap="round" stroke-linejoin="round"/>
<path d="M6.86796 19.376C5.83476 19.376 4.99023 20.2205 4.99023 21.2508" stroke="black" stroke-width="2.5" stroke-miterlimit="2.6131" stroke-linecap="round" stroke-linejoin="round"/>
<path d="M4.99023 21.2505V52.6549H61.0134V41.0987" stroke="black" stroke-width="2.5" stroke-miterlimit="2.6131" stroke-linecap="round" stroke-linejoin="round"/>
<path d="M42.9576 19.376H30.2344" stroke="black" stroke-width="2.5" stroke-miterlimit="2.6131" stroke-linecap="round" stroke-linejoin="round"/>
<path d="M59.4976 19.376H48.1895" stroke="black" stroke-width="2.5" stroke-miterlimit="2.6131" stroke-linecap="round" stroke-linejoin="round"/>
<path d="M61.0137 35.1806V24.8252" stroke="black" stroke-width="2.5" stroke-miterlimit="2.6131" stroke-linecap="round" stroke-linejoin="round"/>
<path d="M4.33203 56.1475H24.9122" stroke="black" stroke-width="2.5" stroke-miterlimit="2.6131" stroke-linecap="round" stroke-linejoin="round"/>
<path d="M54.4848 56.59C54.73 56.59 54.9277 56.3892 54.9277 56.1473C54.9277 55.9007 54.7298 55.7046 54.4848 55.7046C54.2399 55.7046 54.0391 55.9009 54.0391 56.1473C54.0391 56.3892 54.2399 56.59 54.4848 56.59Z" stroke="black" stroke-width="2.5" stroke-miterlimit="2.6131" stroke-linecap="round" stroke-linejoin="round"/>
<path d="M57.8105 56.59C58.0571 56.59 58.2565 56.3892 58.2565 56.1473C58.2565 55.9007 58.0571 55.7046 57.8105 55.7046C57.5671 55.7046 57.3691 55.9009 57.3691 56.1473C57.3691 56.3892 57.5671 56.59 57.8105 56.59Z" stroke="black" stroke-width="2.5" stroke-miterlimit="2.6131" stroke-linecap="round" stroke-linejoin="round"/>
<path d="M60.8608 56.59C61.1058 56.59 61.3066 56.3892 61.3066 56.1473C61.3066 55.9007 61.1058 55.7046 60.8608 55.7046C60.6188 55.7046 60.418 55.9009 60.418 56.1473C60.4178 56.3892 60.6188 56.59 60.8608 56.59Z" stroke="black" stroke-width="2.5" stroke-miterlimit="2.6131" stroke-linecap="round" stroke-linejoin="round"/>
<path d="M50.4825 35.6063C50.4825 39.6924 47.1696 43.0066 43.0852 43.0066C39.0007 43.0066 35.6895 39.6922 35.6895 35.6063C35.6895 31.5235 39.0007 28.209 43.0852 28.209C47.1696 28.209 50.4825 31.5235 50.4825 35.6063Z" stroke="black" stroke-width="2.5" stroke-miterlimit="2.6131" stroke-linecap="round" stroke-linejoin="round"/>
<path d="M48.2294 6.39196C48.2294 9.23312 45.9255 11.5325 43.0858 11.5325C40.2447 11.5325 37.9453 9.23312 37.9453 6.39196C37.9453 3.5508 40.2447 1.25 43.0858 1.25C45.9253 1.25 48.2294 3.5508 48.2294 6.39196Z" stroke="black" stroke-width="2.5" stroke-miterlimit="2.6131" stroke-linecap="round" stroke-linejoin="round"/>
<path d="M74.2504 35.6063C74.2504 38.4475 71.948 40.7499 69.1068 40.7499C66.2656 40.7499 63.9648 38.4475 63.9648 35.6063C63.9648 32.7682 66.2658 30.4658 69.1068 30.4658C71.9478 30.4658 74.2504 32.7682 74.2504 35.6063Z" stroke="black" stroke-width="2.5" stroke-miterlimit="2.6131" stroke-linecap="round" stroke-linejoin="round"/>
<path d="M69.4585 13.2625C69.4585 15.1661 67.9155 16.7123 66.0087 16.7123C64.1003 16.7123 62.5527 15.1663 62.5527 13.2625C62.5527 11.3541 64.1003 9.80957 66.0087 9.80957C67.9155 9.80957 69.4585 11.3541 69.4585 13.2625Z" stroke="black" stroke-width="2.5" stroke-miterlimit="2.6131" stroke-linecap="round" stroke-linejoin="round"/>
<path d="M16.7815 12.4685C16.7815 14.3767 15.2339 15.9213 13.3287 15.9213C11.4203 15.9213 9.87891 14.3767 9.87891 12.4685C9.87891 10.5632 11.4203 9.01563 13.3287 9.01563C15.2339 9.01546 16.7815 10.5631 16.7815 12.4685Z" stroke="black" stroke-width="2.5" stroke-miterlimit="2.6131" stroke-linecap="round" stroke-linejoin="round"/>
<path d="M49.1309 31.102L63.7322 15.9209" stroke="black" stroke-width="2.5" stroke-miterlimit="2.6131" stroke-linecap="round" stroke-linejoin="round"/>
<path d="M43.0859 27.9856V11.6602" stroke="black" stroke-width="2.5" stroke-miterlimit="2.6131" stroke-linecap="round" stroke-linejoin="round"/>
<path d="M50.4824 35.6064H60.809H63.9637" stroke="black" stroke-width="2.5" stroke-miterlimit="2.6131" stroke-linecap="round" stroke-linejoin="round"/>
<path d="M15.9336 14.812L36.8882 31.2226" stroke="black" stroke-width="2.5" stroke-miterlimit="2.6131" stroke-linecap="round" stroke-linejoin="round"/>
</svg>
