<svg width="107" height="35" viewBox="0 0 107 35" fill="none" xmlns="http://www.w3.org/2000/svg">
<path d="M41.9743 15.5077C41.9267 14.0719 41.4665 12.9231 40.5938 12.0617C39.7205 11.2002 38.5168 10.7695 36.9831 10.7695C35.4488 10.7695 34.2099 11.2002 33.2663 12.0617C32.3223 12.9231 31.7558 14.0719 31.5673 15.5077H41.9743ZM44.3459 22.3638C43.3548 23.656 42.2692 24.5596 41.0893 25.074C39.9091 25.5884 38.5406 25.8457 36.9831 25.8457C35.685 25.8457 34.5169 25.6124 33.4787 25.1458C32.44 24.6791 31.5611 24.0509 30.8416 23.2612C30.1214 22.4716 29.5672 21.5382 29.1779 20.4613C28.7885 19.3845 28.5938 18.2358 28.5938 17.0154C28.5938 15.7231 28.8061 14.533 29.231 13.4437C29.6558 12.355 30.2454 11.4217 31.001 10.6438C31.7558 9.86641 32.6524 9.26189 33.6911 8.83101C34.7293 8.40032 35.862 8.18497 37.0894 8.18497C38.2452 8.18497 39.3072 8.38233 40.2752 8.77719C41.2425 9.17205 42.0745 9.74642 42.7707 10.5001C43.4665 11.254 44.0036 12.1756 44.3813 13.2642C44.7586 14.3534 44.9477 15.5919 44.9477 16.9795V17.8769H31.5673C31.6142 18.5948 31.7851 19.283 32.0805 19.9409C32.3754 20.5993 32.7587 21.1737 33.2309 21.6639C33.7028 22.1546 34.2575 22.5433 34.8946 22.8305C35.5318 23.1177 36.2277 23.2612 36.9831 23.2612C38.1867 23.2612 39.2011 23.0459 40.0275 22.6151C40.8531 22.1844 41.5966 21.5505 42.2574 20.7126L44.3459 22.3638Z" fill="#040606"/>
<path d="M51.8503 17.0146C51.8503 17.9002 51.9857 18.7198 52.2569 19.4735C52.5282 20.2274 52.9236 20.8858 53.443 21.4478C53.9615 22.0104 54.5814 22.4529 55.3014 22.7759C56.0209 23.099 56.829 23.2604 57.7259 23.2604C58.6228 23.2604 59.431 23.099 60.1509 22.7759C60.8704 22.4529 61.4899 22.0104 62.0093 21.4478C62.5278 20.8858 62.9236 20.2274 63.1954 19.4735C63.4662 18.7198 63.6021 17.9002 63.6021 17.0146C63.6021 16.1295 63.4662 15.3095 63.1954 14.5557C62.9236 13.8018 62.5278 13.144 62.0093 12.5814C61.4899 12.0195 60.8704 11.5764 60.1509 11.2533C59.431 10.9303 58.6228 10.7688 57.7259 10.7688C56.829 10.7688 56.0209 10.9303 55.3014 11.2533C54.5814 11.5764 53.9615 12.0195 53.443 12.5814C52.9236 13.144 52.5282 13.8018 52.2569 14.5557C51.9857 15.3095 51.8503 16.1295 51.8503 17.0146ZM49.0889 8.61494H51.8503V11.0558H51.921C52.6759 10.1468 53.5544 9.4405 54.5578 8.93794C55.5609 8.43543 56.6639 8.18425 57.8679 8.18425C59.1653 8.18425 60.351 8.40574 61.4252 8.84828C62.4985 9.29132 63.4129 9.90722 64.1687 10.6969C64.9235 11.4867 65.5137 12.4199 65.9384 13.4968C66.363 14.5738 66.5757 15.7465 66.5757 17.0146C66.5757 18.2834 66.363 19.4555 65.9384 20.5324C65.5137 21.6093 64.9297 22.5426 64.1861 23.3323C63.4431 24.122 62.5632 24.7384 61.5493 25.181C60.534 25.6235 59.4484 25.845 58.2925 25.845C56.8059 25.845 55.5014 25.5158 54.3809 24.8579C53.26 24.2 52.4395 23.3923 51.921 22.4349H51.8503V33.5986H49.0889V8.61494Z" fill="#040606"/>
<path d="M78.6469 17.3374C76.8773 17.3374 75.4727 17.5888 74.4344 18.0913C73.3955 18.5938 72.8765 19.4194 72.8765 20.5682C72.8765 21.6214 73.2251 22.3691 73.9211 22.8115C74.6172 23.2548 75.4841 23.4757 76.5225 23.4757C77.3247 23.4757 78.0275 23.3382 78.6293 23.0629C79.2306 22.788 79.7319 22.423 80.1333 21.9681C80.5346 21.5137 80.8417 20.9808 81.0541 20.3707C81.2659 19.7604 81.384 19.1087 81.4083 18.4143V17.3374H78.6469ZM70.6465 10.7685C71.4964 9.88346 72.5052 9.23103 73.6731 8.81216C74.8419 8.39363 76.0274 8.18399 77.231 8.18399C79.6853 8.18399 81.4549 8.77069 82.5404 9.9428C83.6259 11.1157 84.1692 12.8987 84.1692 15.2914V22.5065C84.1692 22.9855 84.192 23.4819 84.2396 23.9961C84.2868 24.511 84.3458 24.9834 84.4168 25.4141H81.762C81.6673 25.0315 81.6144 24.6064 81.6025 24.1398C81.5901 23.6731 81.5849 23.2602 81.5849 22.9014H81.5145C80.9712 23.7628 80.2451 24.469 79.3367 25.0192C78.4284 25.5694 77.3372 25.8447 76.0626 25.8447C75.2133 25.8447 74.4168 25.7371 73.6731 25.5218C72.9299 25.3064 72.281 24.9895 71.7263 24.5705C71.1716 24.1521 70.7294 23.6316 70.3989 23.009C70.068 22.387 69.9033 21.6691 69.9033 20.8552C69.9033 19.4676 70.2576 18.3785 70.9655 17.5888C71.673 16.799 72.5523 16.2128 73.6021 15.8298C74.6524 15.4472 75.7855 15.2077 77.0005 15.1119C78.216 15.0165 79.331 14.9684 80.3461 14.9684H81.4083V14.4658C81.4083 13.2452 81.0484 12.3243 80.328 11.7018C79.6081 11.0797 78.5993 10.7685 77.3014 10.7685C76.4049 10.7685 75.5261 10.9182 74.6648 11.2172C73.8031 11.5166 73.0418 11.9771 72.3814 12.5992L70.6465 10.7685Z" fill="#040606"/>
<path d="M89.4778 8.61469H92.2385V25.4141H89.4778V8.61469ZM88.8408 2.04566C88.8408 1.49545 89.0351 1.01712 89.4243 0.609877C89.814 0.203194 90.2921 -0.00031662 90.8585 -0.00031662C91.4248 -0.00031662 91.9029 0.203194 92.2921 0.609877C92.6812 1.01712 92.8761 1.49545 92.8761 2.04566C92.8761 2.64424 92.6869 3.13492 92.3097 3.51747C91.932 3.90048 91.4482 4.09187 90.8585 4.09187C90.2682 4.09187 89.7838 3.90048 89.4072 3.51747C89.0294 3.13492 88.8408 2.64424 88.8408 2.04566Z" fill="#040606"/>
<path d="M17.7754 15.025C17.7754 14.7276 17.8567 13.6624 17.9367 13.3045C18.4608 10.9612 20.6831 8.00605 25.0056 8.17256C25.3523 8.18593 25.5955 8.2078 25.8731 8.27818V10.8775C25.5036 10.8392 24.7036 10.83 24.2789 10.8573C23.0367 10.9371 21.2219 11.8222 20.6314 14.1713C20.4435 14.919 20.501 16.5544 20.501 17.0822L20.4997 25.3994H17.7754V15.025Z" fill="#040606"/>
<path d="M97.7275 15.0417C97.7275 14.7443 97.8087 13.679 97.8892 13.3211C98.4131 10.9779 100.635 8.02271 104.958 8.18925C105.305 8.20255 105.548 8.2245 105.825 8.29488V10.8942C105.456 10.8558 104.656 10.8467 104.232 10.874C102.989 10.9538 101.174 11.8389 100.584 14.1881C100.396 14.9357 100.453 16.571 100.453 17.0988L100.452 25.416H97.7275V15.0417Z" fill="#040606"/>
<path d="M6.25761 16.2605L14.2577 8.61472H10.3284L2.78859 16.0093L2.78647 -0.000324249L0.0253906 2.70358L0.0275284 25.4141H2.78859V16.5837L11.001 25.4141H15.0717L6.25761 16.2605Z" fill="#F03957"/>
<path d="M3.63704 30.8023H2.96839C2.90908 30.5927 2.78797 30.4235 2.60507 30.2947C2.42207 30.1659 2.1889 30.1015 1.9055 30.1015C1.53956 30.1015 1.24457 30.2379 1.02039 30.5106C0.79622 30.7833 0.684095 31.1445 0.684095 31.5941C0.684095 32.0537 0.79681 32.4174 1.02229 32.6851C1.24774 32.9528 1.54472 33.0866 1.91316 33.0866C2.1889 33.0866 2.41818 33.0274 2.60118 32.9086C2.78411 32.7899 2.90908 32.6194 2.97612 32.3972H3.64474C3.57517 32.7786 3.38323 33.0866 3.06884 33.3216C2.75448 33.5564 2.36794 33.6738 1.90933 33.6738C1.33214 33.6738 0.869603 33.4864 0.521752 33.1113C0.173936 32.7362 0 32.2305 0 31.5941C0 30.9678 0.173936 30.4646 0.521752 30.0844C0.869603 29.7043 1.32956 29.5143 1.90159 29.5143C2.37568 29.5143 2.76736 29.6381 3.07658 29.8855C3.38581 30.133 3.57259 30.4386 3.63704 30.8023Z" fill="#6F7375"/>
<path d="M6.72234 30.0939C6.39506 30.0939 6.12383 30.2 5.90869 30.4121C5.69351 30.6243 5.57438 30.9033 5.55117 31.2494H7.84317C7.83543 30.9033 7.72914 30.6243 7.52429 30.4121C7.31944 30.2 7.05212 30.0939 6.72234 30.0939ZM7.8277 32.4692H8.49254C8.43579 32.8202 8.24514 33.1088 7.9205 33.3348C7.59586 33.5609 7.2106 33.6738 6.7648 33.6738C6.17988 33.6738 5.71545 33.4882 5.37146 33.117C5.02744 32.7457 4.85547 32.2432 4.85547 31.6093C4.85547 30.9753 5.02678 30.4676 5.36953 30.0863C5.71219 29.705 6.16704 29.5143 6.7339 29.5143C7.29047 29.5143 7.73107 29.6943 8.05576 30.0542C8.3804 30.414 8.54274 30.9022 8.54274 31.5183V31.7758H5.55117V31.8137C5.55117 32.2027 5.66327 32.5134 5.88746 32.7457C6.11161 32.9782 6.40926 33.0943 6.78032 33.0943C7.04047 33.0943 7.26537 33.0381 7.4547 32.9256C7.64412 32.8133 7.76839 32.6611 7.8277 32.4692Z" fill="#6F7375"/>
<path d="M11.8941 33.0868C12.2625 33.0868 12.5582 32.9511 12.7811 32.6795C13.0039 32.4081 13.1154 32.0464 13.1154 31.5943C13.1154 31.1447 13.0039 30.7835 12.7811 30.5108C12.5582 30.2381 12.2625 30.1017 11.8941 30.1017C11.5359 30.1017 11.2447 30.2394 11.0205 30.5145C10.7963 30.7899 10.6843 31.1498 10.6843 31.5943C10.6843 32.0388 10.7957 32.3987 11.0186 32.674C11.2415 32.9492 11.5333 33.0868 11.8941 33.0868ZM12.0178 29.5145C12.5512 29.5145 12.982 29.7058 13.3106 30.0883C13.6391 30.4711 13.8034 30.9729 13.8034 31.5943C13.8034 32.2155 13.6397 32.7175 13.3125 33.1001C12.9853 33.4827 12.5588 33.674 12.0332 33.674C11.7395 33.674 11.4772 33.6135 11.2466 33.4922C11.0161 33.371 10.835 33.198 10.7036 32.9732H10.6882V35H10.0156V29.5523H10.6533V30.2154H10.6688C10.7899 30.0031 10.9728 29.8334 11.2177 29.7058C11.4625 29.5783 11.7291 29.5145 12.0178 29.5145Z" fill="#6F7375"/>
<path d="M16.9268 31.7946H15.9411V33.0902H17.0543C17.3068 33.0902 17.5 33.0353 17.634 32.9254C17.768 32.8156 17.835 32.6571 17.835 32.45C17.835 32.2278 17.7602 32.063 17.6109 31.9556C17.4614 31.8483 17.2333 31.7946 16.9268 31.7946ZM16.977 30.0974H15.9411V31.2492H16.8688C17.3918 31.2492 17.6534 31.0547 17.6534 30.6657C17.6534 30.4815 17.5954 30.3406 17.4794 30.2434C17.3635 30.1462 17.1959 30.0974 16.977 30.0974ZM15.2764 33.6357V29.5519H17.062C17.4485 29.5519 17.7532 29.6454 17.9761 29.8324C18.199 30.0192 18.3104 30.2743 18.3104 30.5976C18.3104 30.8046 18.2447 30.9928 18.1133 31.162C17.9819 31.3313 17.8208 31.4361 17.6302 31.4765V31.5067C17.8904 31.5421 18.0997 31.6469 18.2582 31.8212C18.4167 31.9954 18.496 32.2088 18.496 32.4613C18.496 32.8225 18.3684 33.1086 18.1133 33.3195C17.8582 33.5303 17.5104 33.6357 17.0697 33.6357H15.2764Z" fill="#6F7375"/>
<path d="M20.654 33.6357H19.9893V29.5519H20.654V32.6168H20.6849L22.83 29.5519H23.4948V33.6357H22.83V30.571H22.7991L20.654 33.6357Z" fill="#6F7375"/>
<path d="M28.6048 30.8023H27.9361C27.8768 30.5927 27.7557 30.4235 27.5729 30.2947C27.3898 30.1659 27.1566 30.1015 26.8733 30.1015C26.5073 30.1015 26.2123 30.2379 25.9882 30.5106C25.764 30.7833 25.6519 31.1445 25.6519 31.5941C25.6519 32.0537 25.7646 32.4174 25.9901 32.6851C26.2155 32.9528 26.5125 33.0866 26.8809 33.0866C27.1566 33.0866 27.3859 33.0274 27.5689 32.9086C27.7519 32.7899 27.8768 32.6194 27.9439 32.3972H28.6125C28.5429 32.7786 28.351 33.0866 28.0366 33.3216C27.7222 33.5564 27.3357 33.6738 26.8771 33.6738C26.2999 33.6738 25.8373 33.4864 25.4895 33.1113C25.1417 32.7362 24.9678 32.2305 24.9678 31.5941C24.9678 30.9678 25.1417 30.4646 25.4895 30.0844C25.8373 29.7043 26.2973 29.5143 26.8693 29.5143C27.3434 29.5143 27.7351 29.6381 28.0444 29.8855C28.3535 30.133 28.5403 30.4386 28.6048 30.8023Z" fill="#6F7375"/>
<path d="M32.8112 33.6357V31.787H30.6931V33.6357H30.0283V29.5519H30.6931V31.2415H32.8112V29.5519H33.4759V33.6357H32.8112Z" fill="#6F7375"/>
<path d="M38.6937 33.6357V29.5519H39.3585V33.6357H38.6937ZM36.6027 31.4082H35.8181V33.0902H36.6027C36.8758 33.0902 37.0942 33.0139 37.2578 32.8611C37.4214 32.7082 37.5033 32.5044 37.5033 32.2492C37.5033 31.9942 37.4214 31.7903 37.2578 31.6374C37.0942 31.4846 36.8758 31.4082 36.6027 31.4082ZM35.1533 33.6357V29.5519H35.8181V30.8628H36.6027C37.0794 30.8628 37.4594 30.9877 37.7429 31.2377C38.0263 31.4878 38.1681 31.825 38.1681 32.2492C38.1681 32.6736 38.0263 33.0106 37.7429 33.2607C37.4594 33.5107 37.0794 33.6357 36.6027 33.6357H35.1533Z" fill="#6F7375"/>
<path d="M41.5589 27.7639H42.0536C42.0536 27.9887 42.1225 28.1756 42.2604 28.3245C42.3982 28.4736 42.5793 28.548 42.8034 28.548C43.0276 28.548 43.2086 28.4736 43.3465 28.3245C43.4843 28.1756 43.5533 27.9887 43.5533 27.7639H44.048C44.048 28.1124 43.9326 28.3953 43.7021 28.6125C43.4714 28.8297 43.1719 28.9383 42.8034 28.9383C42.4349 28.9383 42.1354 28.8297 41.9048 28.6125C41.6742 28.3953 41.5589 28.1124 41.5589 27.7639ZM41.7019 33.6357H41.0371V29.5519H41.7019V32.6168H41.7328L43.8779 29.5519H44.5427V33.6357H43.8779V30.571H43.847L41.7019 33.6357Z" fill="#6F7375"/>
<path d="M60.3917 34.7158H59.7651V33.6361H56.3564V29.5523H57.0212V33.0905H59.0617V29.5523H59.7269V33.0905H60.3917V34.7158Z" fill="#6F7375"/>
<path d="M63.3718 30.0939C63.0448 30.0939 62.7735 30.2 62.5584 30.4121C62.3433 30.6243 62.2239 30.9033 62.2008 31.2494H64.4927C64.4852 30.9033 64.3786 30.6243 64.1738 30.4121C63.969 30.2 63.7015 30.0939 63.3718 30.0939ZM64.4772 32.4692H65.1419C65.0853 32.8202 64.8947 33.1088 64.5701 33.3348C64.2455 33.5609 63.8601 33.6738 63.4142 33.6738C62.8292 33.6738 62.365 33.4882 62.021 33.117C61.6771 32.7457 61.5049 32.2432 61.5049 31.6093C61.5049 30.9753 61.6761 30.4676 62.0191 30.0863C62.3617 29.705 62.8165 29.5143 63.3835 29.5143C63.9398 29.5143 64.3804 29.6943 64.705 30.0542C65.0301 30.414 65.1924 30.9022 65.1924 31.5183V31.7758H62.2008V31.8137C62.2008 32.2027 62.3126 32.5134 62.5372 32.7457C62.7613 32.9782 63.059 33.0943 63.4298 33.0943C63.6902 33.0943 63.9148 33.0381 64.1044 32.9256C64.2936 32.8133 64.4182 32.6611 64.4772 32.4692Z" fill="#6F7375"/>
<path d="M69.4481 33.6357V31.787H67.3303V33.6357H66.665V29.5519H67.3303V31.2415H69.4481V29.5519H70.1129V33.6357H69.4481Z" fill="#6F7375"/>
<path d="M74.8216 29.5519V30.0974H73.469V33.6357H72.8038V30.0974H71.4512V29.5519H74.8216Z" fill="#6F7375"/>
<path d="M78.0387 33.0868C78.4065 33.0868 78.7028 32.9511 78.926 32.6795C79.1486 32.4081 79.26 32.0464 79.26 31.5943C79.26 31.1447 79.1486 30.7835 78.926 30.5108C78.7028 30.2381 78.4065 30.1017 78.0387 30.1017C77.6801 30.1017 77.3893 30.2393 77.1651 30.5145C76.941 30.7898 76.8287 31.1498 76.8287 31.5943C76.8287 32.0388 76.9405 32.3987 77.1632 32.674C77.3859 32.9492 77.6777 33.0868 78.0387 33.0868ZM78.1623 29.5145C78.6954 29.5145 79.1266 29.7058 79.4552 30.0883C79.7833 30.4711 79.9481 30.9729 79.9481 31.5943C79.9481 32.2155 79.7843 32.7175 79.4571 33.1C79.13 33.4827 78.7038 33.674 78.1775 33.674C77.8842 33.674 77.6218 33.6135 77.3913 33.4922C77.1607 33.371 76.9797 33.198 76.8478 32.9732H76.8331V35H76.1602V29.5523H76.7978V30.2153H76.8135C76.9341 30.0031 77.1176 29.8334 77.3623 29.7058C77.6071 29.5783 77.8739 29.5145 78.1623 29.5145Z" fill="#6F7375"/>
</svg>
